<svg width="98" height="45" viewBox="0 0 98 45" fill="none" xmlns="http://www.w3.org/2000/svg">
<rect x="0.5" y="0.5" width="97" height="44" stroke="#D3D3D3"/>
<path d="M25.3 27.048V26.1C25.572 26.092 25.812 25.992 26.02 25.8C26.228 25.608 26.392 25.256 26.512 24.744C26.64 24.232 26.72 23.5 26.752 22.548L26.824 20.736H31.084V27H30.028V21.672H27.76L27.736 22.644C27.696 23.78 27.58 24.668 27.388 25.308C27.204 25.948 26.936 26.396 26.584 26.652C26.24 26.908 25.812 27.04 25.3 27.048ZM35.5255 27.12C34.9015 27.12 34.3495 26.972 33.8695 26.676C33.3975 26.372 33.0295 25.976 32.7655 25.488C32.5015 24.992 32.3695 24.456 32.3695 23.88C32.3695 23.296 32.5015 22.76 32.7655 22.272C33.0375 21.776 33.4095 21.38 33.8815 21.084C34.3615 20.78 34.9095 20.628 35.5255 20.628C36.1495 20.628 36.6975 20.78 37.1695 21.084C37.6495 21.38 38.0215 21.776 38.2855 22.272C38.5575 22.76 38.6935 23.296 38.6935 23.88C38.6935 24.456 38.5575 24.992 38.2855 25.488C38.0215 25.976 37.6535 26.372 37.1815 26.676C36.7095 26.972 36.1575 27.12 35.5255 27.12ZM33.4495 23.892C33.4495 24.324 33.5415 24.716 33.7255 25.068C33.9175 25.42 34.1695 25.7 34.4815 25.908C34.7935 26.108 35.1415 26.208 35.5255 26.208C35.9095 26.208 36.2575 26.104 36.5695 25.896C36.8895 25.688 37.1415 25.408 37.3255 25.056C37.5175 24.696 37.6135 24.3 37.6135 23.868C37.6135 23.436 37.5175 23.044 37.3255 22.692C37.1415 22.34 36.8895 22.06 36.5695 21.852C36.2575 21.644 35.9095 21.54 35.5255 21.54C35.1415 21.54 34.7935 21.648 34.4815 21.864C34.1695 22.072 33.9175 22.352 33.7255 22.704C33.5415 23.056 33.4495 23.452 33.4495 23.892ZM39.9611 27V20.736H43.8251V21.672H41.0171V27H39.9611ZM47.6427 27.12C47.0187 27.12 46.4667 26.972 45.9867 26.676C45.5147 26.372 45.1467 25.976 44.8827 25.488C44.6187 24.992 44.4867 24.456 44.4867 23.88C44.4867 23.296 44.6187 22.76 44.8827 22.272C45.1547 21.776 45.5267 21.38 45.9987 21.084C46.4787 20.78 47.0267 20.628 47.6427 20.628C48.2667 20.628 48.8147 20.78 49.2867 21.084C49.7667 21.38 50.1387 21.776 50.4027 22.272C50.6747 22.76 50.8107 23.296 50.8107 23.88C50.8107 24.456 50.6747 24.992 50.4027 25.488C50.1387 25.976 49.7707 26.372 49.2987 26.676C48.8267 26.972 48.2747 27.12 47.6427 27.12ZM45.5667 23.892C45.5667 24.324 45.6587 24.716 45.8427 25.068C46.0347 25.42 46.2867 25.7 46.5987 25.908C46.9107 26.108 47.2587 26.208 47.6427 26.208C48.0267 26.208 48.3747 26.104 48.6867 25.896C49.0067 25.688 49.2587 25.408 49.4427 25.056C49.6347 24.696 49.7307 24.3 49.7307 23.868C49.7307 23.436 49.6347 23.044 49.4427 22.692C49.2587 22.34 49.0067 22.06 48.6867 21.852C48.3747 21.644 48.0267 21.54 47.6427 21.54C47.2587 21.54 46.9107 21.648 46.5987 21.864C46.2867 22.072 46.0347 22.352 45.8427 22.704C45.6587 23.056 45.5667 23.452 45.5667 23.892ZM53.6143 27V21.672H51.4543V20.736H56.8303V21.672H54.6703V27H53.6143ZM57.8791 27V20.748H58.9351V25.584L62.4391 20.736H63.3991V27H62.3431V22.26L58.8871 27H57.8791ZM65.0744 27V20.736H70.2704V27H69.2144V21.672H66.1304V27H65.0744Z" fill="#F9F9F9"/>
</svg>
